<?xml version="1.0" encoding="UTF-8"?>
<!DOCTYPE svg PUBLIC "-//W3C//DTD SVG 1.1//EN" "http://www.w3.org/Graphics/SVG/1.1/DTD/svg11.dtd">
<svg xmlns="http://www.w3.org/2000/svg" xmlns:xlink="http://www.w3.org/1999/xlink" version="1.1" width="367" height="67" viewBox="-0.5 -0.5 367 67" content="&lt;mxfile host=&quot;Electron&quot; modified=&quot;2020-09-13T21:44:57.737Z&quot; agent=&quot;5.0 (Windows NT 10.0; Win64; x64) AppleWebKit/537.36 (KHTML, like Gecko) draw.io/13.6.2 Chrome/83.0.4103.122 Electron/9.2.0 Safari/537.36&quot; etag=&quot;3ASJlAYRPnYSNKl0J1fd&quot; version=&quot;13.6.2&quot; type=&quot;device&quot;&gt;&lt;diagram id=&quot;6hiGK29E_OgwmnQe6DdF&quot; name=&quot;Page-1&quot;&gt;1VVLj9MwEP41Oe4qjzZ0j7Tb7goVcchKLFxWJpkmBicTnEmb8uuxm3GTqFDBAQRSpXg+z9PfzNSLVmX3oEVdvMUMlBf6WedF914YBn44Mx+LHHsk9oMeyLXMWGkAEvkNnCWjrcygmSgSoiJZT8EUqwpSmmBCazxM1XaoplFrkcMFkKRCXaLvZUZFjy7CVwP+CDIvXOQgvutvSuGUuZKmEBkeJhB0tMGKOMUHTAtp0EdRZd58XRDZGl974cb8dlbvNkfMFYhaNrcplgZOG6Oy2YlSKvvA7GJ5cmFCRGsvWmlE6k9ltwJl+XFP3+ex+cntuXYNFf2KwVMSBm/S7l2c1Enw9LL9uNje3URcPh3dm0JmnphF1FRgjpVQ6wFdamyrDKxX30iDzhaxNmBgwM9AdOR+ES2hgQoqFd9CJ+l5dP5gXd3OWbrv2PNJODqhIn18HgsjKysOZifJ2TVfgNKCgzGx2UVXDW/IUIOtTuHKw7l2FzoHuqIXnpk2UwhYgknO2GlQguR+mofgXsvPegOd5sCM/ga77HcvVMuRvDBWJt2l7Vg7cYKLjL+2tg+XkzY/o5MOcaB1cdOcODZj4AezuhtbxLn9pkqYITClucA8Le7+ov2mzXUoJEFS91kezBKbNtIPyN2DJuiu03tJhzOY8ezzPgznLB+G7RK4/VCMNkvs/yEGw3+GwU//BYPR4u8xaMRhe5/uRn+z0fo7&lt;/diagram&gt;&lt;/mxfile&gt;"><defs><style type="text/css">@import url(https://fonts.googleapis.com/css?family=Gochi+Hand);&#xa;</style><filter id="dropShadow"><feGaussianBlur in="SourceAlpha" stdDeviation="1.7" result="blur"/><feOffset in="blur" dx="3" dy="3" result="offsetBlur"/><feFlood flood-color="#3D4574" flood-opacity="0.4" result="offsetColor"/><feComposite in="offsetColor" in2="offsetBlur" operator="in" result="offsetBlur"/><feBlend in="SourceGraphic" in2="offsetBlur"/></filter></defs><g filter="url(#dropShadow)"><path d="M 120 30 L 233.63 30" fill="none" stroke="none" pointer-events="stroke"/><path d="M 238.88 30 L 231.88 33.5 L 233.63 30 L 231.88 26.5 Z" fill="none" stroke="none" pointer-events="all"/><path d="M 119.33 29.45 M 121.82 31.41 C 154.69 31.02 189.5 30.13 231.64 29.83 M 119.19 29.21 C 149.69 31.96 177.61 31.1 233.95 29.12" fill="none" stroke="#000000" stroke-linejoin="round" stroke-linecap="round" stroke-miterlimit="10" pointer-events="stroke"/><path d="M 232.19 26.14 C 232.19 26.14 232.19 26.14 232.19 26.14 M 232.19 26.14 C 232.19 26.14 232.19 26.14 232.19 26.14 M 233.84 30.15 C 234.54 29.38 235.06 28.56 235.68 28.28 M 234.01 30.31 C 234.6 29.56 234.98 29.01 235.79 27.93" fill="none" stroke="#000000" stroke-linejoin="round" stroke-linecap="round" stroke-miterlimit="10" pointer-events="all"/><path d="M 238.33 28.6 M 239.15 29.83 C 236.28 30.69 233.65 32.36 231.62 32.91 M 238.94 29.77 C 237.11 31.42 234.6 32.33 231.83 33.54 M 231.6 33.37 C 232.41 32.43 232.51 32.33 233.63 30.31 M 232.01 33.66 C 232.43 32.24 233.32 31.07 233.71 30 M 233.38 29.84 C 232.88 29.23 232.18 27.62 231.92 26.87 M 233.49 29.81 C 233.22 28.86 232.6 27.67 231.71 26.42 M 232.07 27 C 234.33 27.21 236.54 28.62 238.64 30.42 M 231.56 26.18 C 234.45 27.93 237.43 29.01 239.06 30.38" fill="none" stroke="#000000" stroke-linejoin="round" stroke-linecap="round" stroke-miterlimit="10" pointer-events="all"/><path d="M 0.04 1.18 L 118.57 -1.62 L 121.23 58.23 L 1.34 59.91" fill="#ffffff" stroke="none" pointer-events="all"/><path d="M -1.46 -1.94 C 30.42 -0.56 64.42 0.83 120.48 -0.66 M -0.69 0.63 C 43.22 -1.25 86.31 -0.32 120.69 0.63 M 120.53 -1.29 C 121.6 18.48 119.31 37.61 119.97 59.58 M 120.12 -0.17 C 120.32 21.21 120.88 44.12 120.64 60.77 M 121.63 61.66 C 89.7 60.49 60.99 60.6 -0.8 60.62 M 119.24 60.31 C 82.49 60.67 43.7 60.69 0.14 60.4 M 1.46 59.31 C -0.33 39.54 1.43 24.09 -1.62 -0.33 M 0.46 60.69 C 0.46 37.72 0.47 15.18 0.08 0.84" fill="none" stroke="#000000" stroke-linejoin="round" stroke-linecap="round" stroke-miterlimit="10" pointer-events="all"/><g transform="translate(-0.5 -0.5)"><switch><foreignObject style="overflow: visible; text-align: left;" pointer-events="none" width="100%" height="100%" requiredFeatures="http://www.w3.org/TR/SVG11/feature#Extensibility"><div xmlns="http://www.w3.org/1999/xhtml" style="display: flex; align-items: unsafe center; justify-content: unsafe center; width: 118px; height: 1px; padding-top: 30px; margin-left: 1px;"><div style="box-sizing: border-box; font-size: 0; text-align: center; "><div style="display: inline-block; font-size: 12px; font-family: Helvetica; color: #000000; line-height: 1.2; pointer-events: all; white-space: normal; word-wrap: normal; "><font face="Gochi Hand" style="font-size: 14px">class a</font></div></div></div></foreignObject><text x="60" y="34" fill="#000000" font-family="Helvetica" font-size="12px" text-anchor="middle">class a</text></switch></g><path d="M 240.44 -1.4 L 361.62 -1.81 L 359.48 58.47 L 240.27 59.44" fill="#ffffff" stroke="none" pointer-events="all"/><path d="M 241.4 1.03 C 272.1 -2.84 305.87 -0.34 361.69 1.73 M 239.66 -0.11 C 285.23 -0.75 330.53 -0.4 359.11 0.38 M 360.07 -1.04 C 361.02 18.76 359.42 36.07 359.36 60.71 M 359.42 0.03 C 359.15 13.45 358.74 27.35 360.05 60.12 M 360.69 59.44 C 330.85 62.28 297.55 61.85 239.03 58.21 M 359.3 59.17 C 324.3 61.27 289.28 61.02 240.08 59.45 M 238.74 61.03 C 239.09 46.81 239.12 35.85 240.97 0.47 M 239.67 60.69 C 240.91 40.24 241.43 19.63 239.52 0.82" fill="none" stroke="#000000" stroke-linejoin="round" stroke-linecap="round" stroke-miterlimit="10" pointer-events="all"/><g transform="translate(-0.5 -0.5)"><switch><foreignObject style="overflow: visible; text-align: left;" pointer-events="none" width="100%" height="100%" requiredFeatures="http://www.w3.org/TR/SVG11/feature#Extensibility"><div xmlns="http://www.w3.org/1999/xhtml" style="display: flex; align-items: unsafe center; justify-content: unsafe center; width: 118px; height: 1px; padding-top: 30px; margin-left: 241px;"><div style="box-sizing: border-box; font-size: 0; text-align: center; "><div style="display: inline-block; font-size: 12px; font-family: Helvetica; color: #000000; line-height: 1.2; pointer-events: all; white-space: normal; word-wrap: normal; "><font face="Gochi Hand" style="font-size: 14px">class b</font></div></div></div></foreignObject><text x="300" y="34" fill="#000000" font-family="Helvetica" font-size="12px" text-anchor="middle">class b</text></switch></g></g><switch><g requiredFeatures="http://www.w3.org/TR/SVG11/feature#Extensibility"/><a transform="translate(0,-5)" xlink:href="https://desk.draw.io/support/solutions/articles/16000042487" target="_blank"><text text-anchor="middle" font-size="10px" x="50%" y="100%">Viewer does not support full SVG 1.1</text></a></switch></svg>